PathFileType	4	(X/Y/Z)	13_coords_data.trc
DataRate	CameraRate	NumFrames	NumMarkers	Units	OrigDataRate	OrigDataStartFrame	OrigNumFrames
30.0	30.0	7	21	m	30.0	21	61
Frame#	Time	THUMB_TIP	THUMB_IP	THUMB_MCP	THUMB_CMC	INDEX_TIP	INDEX_DIP	INDEX_PIP	INDEX_MCP	MIDDLE_TIP	MIDDLE_DIP	MIDDLE_PIP	MIDDLE_MCP	RING_TIP	RING_DIP	RING_PIP	RING_MCP	PINKY_TIP	PINKY_DIP	PINKY_PIP	PINKY_MCP	WRIST
X1	Y1	Z1	X2	Y2	Z2	X3	Y3	Z3	X4	Y4	Z4	X5	Y5	Z5	X6	Y6	Z6	X7	Y7	Z7	X8	Y8	Z8	X9	Y9	Z9	X10	Y10	Z10	X11	Y11	Z11	X12	Y12	Z12	X13	Y13	Z13	X14	Y14	Z14	X15	Y15	Z15	X16	Y16	Z16	X17	Y17	Z17	X18	Y18	Z18	X19	Y19	Z19	X20	Y20	Z20	X21	Y21	Z21
20	0.6666666666666666	-0.016885099411010743	-0.05398210144042969	0.9565189819335937	-0.0112701997756958	-0.031183300018310548	0.9708200073242188	-0.012545499801635742	-0.012132200241088867	0.9917579956054687	-0.013570199966430664	0.021324800491333007	1.006780029296875	0.0024197499752044668	0.013360600471496582	0.9761799926757813	0.019132400512695314	0.01752359962463379	0.9672880249023438	0.02288360023498535	0.01814229965209961	0.9440599975585937	-0.014233699798583984	0.010181500434875488	0.9476400146484375	0.004008019924163818	0.02957589912414551	0.9827570190429687	0.015599200248718262	0.03564229965209961	0.975906982421875	0.023419599533081054	0.04078060150146484	0.950822021484375	-0.015808199882507323	0.03459920120239258	0.9418829956054687	-0.005289700031280518	0.04313169860839844	0.9895980224609375	0.008661009788513184	0.051145301818847654	0.9841010131835938	0.01755459976196289	0.059862998962402346	0.9631680297851563	-0.018112300872802734	0.05604679870605469	0.9490349731445312	-0.009876250267028808	0.056781898498535155	0.9951959838867187	0.00313902997970581	0.06421489715576172	0.9910780029296875	0.008135259628295899	0.0726270980834961	0.9757540283203125	-0.01895989990234375	0.07287740325927734	0.9617659912109375	-0.03734479904174805	0.04427059936523438	1.0174000244140624
21	0.7	-0.017059900283813476	-0.053768798828125	0.9563920288085938	-0.011390899658203125	-0.03100950050354004	0.9707670288085938	-0.01259689998626709	-0.011937100410461426	0.9917470092773437	-0.01359689998626709	0.021418699264526365	1.0066199951171875	0.0024930100440978997	0.013387700080871583	0.975760009765625	0.019182100296020507	0.017626399993896483	0.967208984375	0.022867900848388672	0.01820949935913086	0.9440009765625	-0.014273300170898437	0.010328700065612793	0.9474509887695313	0.004153480052947998	0.029682100296020506	0.9825770263671875	0.015624899864196778	0.035697498321533204	0.975823974609375	0.023513399124145507	0.04084420013427734	0.9506099853515625	-0.015779600143432618	0.03475040054321289	0.9418099975585937	-0.005361690044403076	0.04328279876708984	0.9896190185546875	0.008699399948120117	0.05118050003051758	0.9840869750976563	0.017683399200439452	0.05995309829711914	0.9631279907226562	-0.01805380058288574	0.0561968994140625	0.9489819946289062	-0.009913829803466797	0.05700719833374023	0.9953070068359375	0.0032962300777435297	0.06429080200195313	0.991031005859375	0.0082952299118042	0.07275830078125	0.9756829833984375	-0.018786399841308594	0.07301570129394531	0.961635009765625	-0.0372963981628418	0.0443203010559082	1.0174500122070314
22	0.7333333333333333	-0.016636699676513673	-0.05357640075683594	0.9564080200195313	-0.011018799781799317	-0.03079360008239746	0.9707459716796875	-0.012322799682617187	-0.011738300323486328	0.9916710205078125	-0.013420399665832519	0.021660400390625	1.0065900268554688	0.002418790102005005	0.013764900207519531	0.976197021484375	0.01938909912109375	0.01806340026855469	0.9670079956054688	0.02278779983520508	0.018639400482177736	0.94377099609375	-0.01426949977874756	0.010507599830627441	0.94760498046875	0.004107619762420654	0.030018299102783204	0.9827069702148438	0.01560219955444336	0.03603950119018555	0.9758579711914063	0.023455400466918946	0.04127069854736328	0.9503920288085937	-0.01578600025177002	0.03495869827270508	0.9418170166015625	-0.0052118501663208005	0.04363169860839844	0.9896690063476562	0.008738329887390137	0.051592201232910154	0.9840180053710937	0.017665599822998045	0.060337898254394534	0.9630419921875	-0.018108999252319336	0.05638449859619141	0.94889697265625	-0.009917140007019043	0.057335399627685545	0.995302001953125	0.003218349933624267	0.06466259765625	0.9909760131835937	0.008150349617004395	0.07310919952392578	0.9756119995117187	-0.018998899459838868	0.07326959991455079	0.9617780151367188	-0.037176498413085936	0.0445276985168457	1.0174600219726562
23	0.7666666666666667	-0.016400400161743163	-0.05334659957885742	0.9565999755859375	-0.010807299613952636	-0.03061199951171875	0.970885009765625	-0.012163100242614746	-0.011558199882507324	0.9918560180664062	-0.013229499816894532	0.021861000061035155	1.0068099975585938	0.002772239923477173	0.013962200164794922	0.9763579711914062	0.019469100952148436	0.018243200302124025	0.967093017578125	0.022865800857543944	0.01894070053100586	0.94389501953125	-0.014171299934387207	0.010763899803161621	0.9475770263671875	0.004416250228881836	0.030197900772094728	0.9826799926757812	0.015813599586486815	0.03620899963378906	0.975958984375	0.02353059959411621	0.041449501037597654	0.9504000244140625	-0.015737199783325197	0.03516490173339844	0.9419169921875	-0.005198369979858399	0.043748699188232425	0.9898109741210938	0.008802820205688476	0.05172359848022461	0.9839619750976563	0.017966499328613283	0.06046849822998047	0.9634329833984375	-0.018040300369262696	0.0565620002746582	0.9490269775390625	-0.010026399612426757	0.057329200744628904	0.9956909790039062	0.003374370098114013	0.06479209899902344	0.9911849975585938	0.008338299751281739	0.07325920104980468	0.9758709716796875	-0.0188262996673584	0.07341470336914062	0.9618679809570313	-0.03705020141601562	0.044858501434326174	1.0176199951171876
24	0.8	-0.015710399627685546	-0.05340019989013672	0.9569119873046875	-0.010374799728393554	-0.030622100830078124	0.9712780151367187	-0.011788499832153321	-0.011546500205993652	0.9922020263671875	-0.012983099937438965	0.02189739990234375	1.0070999755859376	0.002878570079803467	0.013913599967956543	0.9765670166015625	0.019647300720214842	0.018312999725341797	0.9671370239257813	0.022921899795532226	0.018980499267578124	0.9440269775390625	-0.014094099998474122	0.010562100410461427	0.9478480224609375	0.004392069816589355	0.030166900634765625	0.9830150146484375	0.016089300155639648	0.03628239822387695	0.9759760131835937	0.02367020034790039	0.041435901641845706	0.9506530151367187	-0.015645299911499023	0.03496799850463867	0.9420889892578125	-0.004992459774017334	0.04380459976196289	0.9900900268554688	0.009034040451049805	0.051787399291992185	0.9842160034179688	0.01785919952392578	0.060504199981689454	0.963052001953125	-0.017983299255371094	0.05632419967651367	0.94910302734375	-0.00963523006439209	0.05734749984741211	0.9955430297851563	0.003588520050048828	0.064845703125	0.991239990234375	0.008384750366210938	0.07326020050048829	0.975802978515625	-0.018757400512695314	0.07326139831542969	0.9619180297851563	-0.03678969955444336	0.044759601593017576	1.0179299926757812
25	0.8333333333333334	-0.015137200355529784	-0.05363399887084961	0.9571929931640625	-0.009964570045471192	-0.03083839988708496	0.9715570068359375	-0.011440400123596192	-0.011714799880981445	0.992447998046875	-0.012595299720764161	0.021718099594116212	1.0072899780273437	0.003474129915237426	0.013744500160217285	0.976697998046875	0.01997559928894043	0.018137599945068358	0.9673870239257812	0.02324880027770996	0.018746299743652342	0.9442490234375	-0.013867300033569336	0.01038889980316162	0.948166015625	0.0045823798179626465	0.029982900619506835	0.983302001953125	0.016335399627685546	0.03612319946289062	0.97622998046875	0.0239424991607666	0.0412229995727539	0.9508610229492187	-0.01527810001373291	0.03469139862060547	0.9421920166015625	-0.004796689987182618	0.04361230087280273	0.9903410034179687	0.009279419898986816	0.05161640167236328	0.9842219848632813	0.018079500198364257	0.06030979919433594	0.9633930053710937	-0.017723100662231445	0.0560546989440918	0.9492750244140625	-0.009403739929199219	0.05715560150146484	0.995781982421875	0.003693569898605346	0.06465809631347656	0.9914030151367188	0.008578780174255372	0.07310910034179688	0.9759010009765625	-0.018567800521850586	0.07301439666748047	0.9621170043945313	-0.03640330123901367	0.04461550140380859	1.0180399780273437
26	0.8666666666666667	-0.014937899589538573	-0.05382440185546875	0.9572050170898437	-0.00970775032043457	-0.030999000549316407	0.9716610107421875	-0.011263799667358399	-0.011886300086975098	0.9925989990234375	-0.012470800399780274	0.021592899322509764	1.0075399780273437	0.00378518009185791	0.013565999984741211	0.9765889892578125	0.020220800399780272	0.017949100494384765	0.9675499877929687	0.02358419990539551	0.018521900177001952	0.94439697265625	-0.013425700187683106	0.01023419952392578	0.9482160034179687	0.005023280143737793	0.029827600479125978	0.9832760009765625	0.01667340087890625	0.03595489883422852	0.9762020263671874	0.024242000579833986	0.04098789978027344	0.9508300170898437	-0.015051300048828126	0.03457419967651367	0.9424149780273438	-0.004288360118865967	0.04345719909667969	0.9904240112304687	0.009640350341796874	0.0514463996887207	0.9845960083007812	0.018423500061035155	0.06006930160522461	0.9634500122070313	-0.01739080047607422	0.055946300506591794	0.9494190063476563	-0.008919569969177246	0.056898799896240235	0.9958350219726563	0.003977580070495605	0.06448159790039062	0.9915900268554687	0.008881979942321778	0.07295259857177734	0.9761099853515625	-0.018174699783325195	0.07288700103759765	0.9621820068359375	-0.03632659912109375	0.04439519882202148	1.0179000244140626
